<!DOCTYPE svg PUBLIC "-//W3C//DTD SVG 20010904//EN" "http://www.w3.org/TR/2001/REC-SVG-20010904/DTD/svg10.dtd">
<svg version="1.0" xmlns="http://www.w3.org/2000/svg" width="1106px" height="232px" viewBox="0 0 11060 2320" preserveAspectRatio="xMidYMid meet">
<g id="layer101" fill="#010101" stroke="none">
 <path d="M7179 2158 c-1 -7 0 -90 1 -185 l2 -172 -306 -3 c-299 -3 -306 -3 -327 -25 -29 -28 -27 -75 4 -122 14 -20 211 -245 438 -502 228 -256 531 -597 674 -757 159 -180 265 -291 275 -290 13 3 15 74 12 623 -2 341 -1 689 3 774 l7 153 109 -7 c108 -7 108 -7 135 20 21 21 25 32 20 58 -11 57 -35 67 -157 67 l-109 0 0 174 c0 96 -3 181 -6 190 -5 14 -49 16 -390 16 -300 0 -384 -3 -385 -12z m731 -202 c0 -96 3 -181 6 -190 5 -13 22 -16 83 -16 42 0 100 -3 129 -6 47 -6 52 -9 52 -32 l0 -25 -125 5 c-115 5 -127 3 -136 -13 -6 -12 -8 -286 -7 -749 2 -557 0 -730 -9 -730 -10 0 -1200 1331 -1301 1455 -33 41 -41 78 -19 92 6 4 143 6 304 5 160 -2 301 -1 312 3 20 6 21 12 21 191 l0 184 345 0 345 0 0 -174z"/>
 <path d="M6795 1700 c-105 -4 -130 -8 -133 -20 -3 -18 521 -615 540 -615 19 0 25 623 6 630 -22 7 -278 10 -413 5z m385 -291 c0 -210 -2 -250 -14 -247 -20 4 -426 465 -426 483 0 13 30 15 220 15 l220 0 0 -251z"/>
 <path d="M935 1733 c-27 -19 -62 -47 -77 -60 l-26 -25 -69 27 c-262 106 -525 -39 -598 -330 -55 -221 93 -477 313 -541 87 -26 212 -15 296 24 176 82 282 289 255 492 -12 82 -64 194 -119 254 -25 27 -40 52 -37 60 3 8 38 37 76 63 39 26 70 54 71 61 0 22 -34 12 -85 -25z m-187 -78 c23 -9 42 -24 42 -32 0 -9 -17 -35 -39 -58 -46 -50 -64 -82 -52 -89 5 -3 34 23 66 59 31 36 63 65 70 65 22 0 96 -91 129 -160 30 -62 31 -71 31 -190 0 -120 -1 -128 -32 -193 -40 -84 -117 -163 -197 -202 -46 -23 -77 -30 -142 -33 l-84 -5 0 433 0 433 83 -5 c45 -3 101 -13 125 -23z"/>
 <path d="M1390 1699 c-75 -13 -149 -52 -183 -96 -52 -69 -57 -110 -60 -464 l-2 -324 180 0 180 0 3 434 2 434 99 -6 c108 -6 175 -28 224 -75 70 -66 79 -117 86 -487 5 -266 8 -310 21 -310 13 0 15 36 12 280 -2 154 -8 309 -13 345 -24 158 -101 243 -244 269 -68 13 -226 13 -305 0z"/>
 <path d="M5210 1694 c-82 -21 -186 -97 -236 -171 -79 -117 -108 -251 -79 -368 38 -153 122 -263 250 -326 67 -32 74 -34 180 -34 105 0 114 2 177 33 151 74 239 204 263 387 13 106 -41 263 -123 355 -103 116 -275 165 -432 124z m285 -53 c84 -42 155 -112 197 -198 32 -66 33 -71 33 -193 0 -123 -1 -127 -34 -195 -69 -140 -194 -224 -343 -233 l-78 -5 0 433 0 433 79 -5 c64 -4 93 -11 146 -37z"/>
 <path d="M6039 1697 c-84 -24 -189 -97 -189 -132 0 -24 22 -18 60 19 76 75 221 118 275 82 51 -34 34 -69 -128 -258 -126 -147 -172 -215 -192 -281 -19 -64 -19 -92 0 -148 23 -66 65 -111 139 -148 55 -28 79 -34 154 -39 123 -7 231 27 280 86 33 41 1 42 -53 1 -70 -52 -179 -74 -223 -43 -46 32 -21 87 108 234 197 223 251 318 236 414 -15 88 -79 160 -180 199 -64 25 -221 33 -287 14z"/>
 <path d="M9365 1703 c-78 -17 -195 -89 -243 -150 -64 -82 -112 -211 -112 -303 0 -106 54 -240 130 -323 186 -203 522 -175 672 57 202 313 -9 732 -367 725 -33 -1 -69 -3 -80 -6z m238 -53 c66 -25 162 -108 200 -173 59 -101 74 -250 37 -370 -51 -166 -213 -287 -382 -287 l-58 0 0 431 0 432 73 -5 c39 -3 98 -15 130 -28z"/>
 <path d="M10250 1699 c-75 -13 -149 -52 -183 -96 -54 -72 -60 -117 -61 -468 l-1 -320 183 -3 182 -2 0 436 0 437 99 -6 c108 -6 175 -28 224 -75 70 -66 79 -117 86 -487 5 -266 8 -310 21 -310 13 0 15 36 12 275 -1 151 -7 306 -13 344 -23 163 -99 248 -244 275 -68 13 -226 13 -305 0z"/>
 <path d="M1970 1683 c0 -18 71 -147 349 -640 l155 -273 21 38 c12 20 106 199 210 397 103 198 203 388 222 423 l35 62 -209 0 -209 0 -29 -60 -29 -60 -216 0 -216 0 -32 65 c-31 64 -52 83 -52 48z m490 -158 c0 -18 -167 -335 -177 -335 -10 0 -193 316 -193 334 0 3 83 6 185 6 102 0 185 -2 185 -5z"/>
 <path d="M4651 1680 c-65 -23 -177 -88 -245 -142 -27 -21 -52 -38 -57 -38 -5 0 -10 42 -11 93 l-3 92 -183 3 -182 2 2 -437 3 -438 160 -3 c200 -4 360 11 445 39 51 18 77 35 121 78 75 75 103 146 103 256 -1 112 -29 182 -104 257 -50 50 -67 60 -134 80 -42 12 -75 27 -73 32 6 17 119 74 194 97 42 13 73 28 73 36 0 19 -45 16 -109 -7z m-114 -184 c96 -26 174 -93 215 -184 33 -72 31 -189 -4 -264 -31 -66 -90 -128 -152 -157 -48 -22 -145 -41 -213 -41 l-43 0 0 274 c0 151 -3 281 -6 289 -3 9 12 31 38 56 49 46 76 51 165 27z"/>
 <path d="M8440 1685 c0 -9 31 -60 68 -113 38 -53 72 -103 76 -110 10 -17 -234 -358 -457 -639 -7 -10 35 -13 207 -13 l215 0 117 165 c65 91 122 165 128 165 6 0 60 -77 121 -170 101 -157 136 -197 134 -152 0 21 -579 874 -596 880 -7 2 -13 -4 -13 -13z"/>
 <path d="M3028 1258 c-3 -238 -3 -436 -1 -440 6 -12 387 -9 468 2 175 26 302 144 350 325 37 143 -2 291 -106 408 -99 112 -196 137 -525 137 l-181 0 -5 -432z m576 357 c245 -124 300 -456 108 -653 -68 -70 -148 -106 -244 -111 l-78 -3 0 402 0 402 78 -3 c61 -3 89 -10 136 -34z"/>
 </g>

</svg>